<svg xmlns="http://www.w3.org/2000/svg" xmlns:xlink="http://www.w3.org/1999/xlink" viewBox="0 0 430 430" width="430" height="430" preserveAspectRatio="xMidYMid meet" style="width: 100%; height: 100%; transform: translate3d(0px, 0px, 0px); content-visibility: visible;"><defs><clipPath id="__lottie_element_10"><rect width="430" height="430" x="0" y="0"/></clipPath><clipPath id="__lottie_element_12"><path d="M0,0 L430,0 L430,430 L0,430z"/></clipPath></defs><g clip-path="url(#__lottie_element_10)"><g clip-path="url(#__lottie_element_12)" style="display: block;" transform="matrix(1,0,0,1,0,0)" opacity="1"><g style="display: block;" transform="matrix(0.9999850988388062,-0.00546284718438983,0.00546284718438983,0.9999850988388062,-28.73023796081543,-32.283294677734375)" opacity="1"><g opacity="1" transform="matrix(1,0,0,1,229.96800231933594,269.6409912109375)"><path class="secondary" fill="rgb(255,199,56)" fill-opacity="1" d=" M65.98500061035156,63.91299819946289 C58.79800033569336,71.0999984741211 2.431999921798706,69.30799865722656 -33.4379997253418,33.4379997253418 C-69.30799865722656,-2.431999921798706 -71.0999984741211,-58.79800033569336 -63.91299819946289,-65.98500061035156 C-56.72600173950195,-73.1719970703125 -21.820999145507812,-49.91899871826172 14.048999786376953,-14.048999786376953 C49.91899871826172,21.820999145507812 73.1719970703125,56.72600173950195 65.98500061035156,63.91299819946289z"/><path class="secondary" fill="rgb(255,199,56)" fill-opacity="1" d=" M65.98500061035156,63.91299819946289 C58.79800033569336,71.0999984741211 2.431999921798706,69.30799865722656 -33.4379997253418,33.4379997253418 C-69.30799865722656,-2.431999921798706 -71.0999984741211,-58.79800033569336 -63.91299819946289,-65.98500061035156 C-56.72600173950195,-73.1719970703125 -21.820999145507812,-49.91899871826172 14.048999786376953,-14.048999786376953 C49.91899871826172,21.820999145507812 73.1719970703125,56.72600173950195 65.98500061035156,63.91299819946289z" style="mix-blend-mode: multiply;"/></g></g><g style="display: block;" transform="matrix(0.9999850988388062,-0.00546284718438983,0.00546284718438983,0.9999850988388062,-28.73023796081543,-32.283294677734375)" opacity="1"><g opacity="1" transform="matrix(1,0,0,1,0,0)"><g opacity="1" transform="matrix(1,0,0,1,192.41400146484375,305.99700927734375)"><path class="secondary" fill="rgb(255,199,56)" fill-opacity="1" d=" M25.579999923706055,-24.375999450683594 C57.38600158691406,7.429999828338623 88.44200134277344,29.32200050354004 100.06700134277344,28.854999542236328 C100.06700134277344,28.854999542236328 53.47600173950195,46.441001892089844 53.47600173950195,46.441001892089844 C53.47600173950195,46.441001892089844 41.4119987487793,50.994998931884766 41.4119987487793,50.994998931884766 C41.4119987487793,50.994998931884766 12.336000442504883,61.96900177001953 12.336000442504883,61.96900177001953 C12.336000442504883,61.96900177001953 -21.01099967956543,74.55500030517578 -21.01099967956543,74.55500030517578 C-21.01099967956543,74.55500030517578 -21.024999618530273,74.55500030517578 -21.024999618530273,74.55500030517578 C-21.024999618530273,74.55500030517578 -27.368000030517578,76.9520034790039 -27.368000030517578,76.9520034790039 C-27.368000030517578,76.9520034790039 -29.990999221801758,77.93499755859375 -29.990999221801758,77.93499755859375 C-29.990999221801758,77.93499755859375 -45.44900131225586,83.7760009765625 -45.44900131225586,83.7760009765625 C-45.44900131225586,83.7760009765625 -47.86000061035156,84.68800354003906 -47.86000061035156,84.68800354003906 C-47.86000061035156,84.68800354003906 -80.58499908447266,97.03399658203125 -80.58499908447266,97.03399658203125 C-80.58499908447266,97.03399658203125 -90.57599639892578,100.8030014038086 -90.57599639892578,100.8030014038086 C-95.33499908447266,102.60600280761719 -100.00900268554688,98.96499633789062 -100.06600189208984,94.39700317382812 C-100.08000183105469,93.5479965209961 -99.93099975585938,92.66400146484375 -99.5989990234375,91.77999877929688 C-99.5989990234375,91.77999877929688 -90.39199829101562,67.39900207519531 -90.39199829101562,67.39900207519531 C-90.39199829101562,67.39900207519531 -90.4000015258789,67.39199829101562 -90.4000015258789,67.39199829101562 C-90.4000015258789,67.39199829101562 -83.3499984741211,48.71799850463867 -83.3499984741211,48.71799850463867 C-83.3499984741211,48.71799850463867 -82.6780014038086,46.94300079345703 -82.6780014038086,46.94300079345703 C-82.6780014038086,46.94300079345703 -76.73799896240234,31.187999725341797 -76.73799896240234,31.187999725341797 C-76.73799896240234,31.187999725341797 -75.92500305175781,29.04599952697754 -75.92500305175781,29.04599952697754 C-75.92500305175781,29.04599952697754 -75.74800109863281,28.57200050354004 -75.74800109863281,28.57200050354004 C-75.74800109863281,28.57200050354004 -73.51399993896484,22.64699935913086 -73.51399993896484,22.64699935913086 C-73.51399993896484,22.64699935913086 -73.51399993896484,22.631999969482422 -73.51399993896484,22.631999969482422 C-73.51399993896484,22.631999969482422 -60.76499938964844,-11.131999969482422 -60.76499938964844,-11.131999969482422 C-60.76499938964844,-11.131999969482422 -60.77199935913086,-11.138999938964844 -60.77199935913086,-11.138999938964844 C-60.77199935913086,-11.138999938964844 -49.797000885009766,-40.21500015258789 -49.797000885009766,-40.21500015258789 C-49.797000885009766,-40.21500015258789 -45.24399948120117,-52.263999938964844 -45.24399948120117,-52.263999938964844 C-45.24399948120117,-52.263999938964844 -45.250999450683594,-52.27199935913086 -45.250999450683594,-52.27199935913086 C-45.250999450683594,-52.27199935913086 -27.658000946044922,-98.87000274658203 -27.658000946044922,-98.87000274658203 C-27.658000946044922,-98.87000274658203 -27.650999069213867,-98.89099884033203 -27.650999069213867,-98.89099884033203 C-27.636999130249023,-99.07499694824219 -27.6299991607666,-99.25199890136719 -27.608999252319336,-99.42900085449219 C-27.594999313354492,-99.58399963378906 -27.56599998474121,-99.73999786376953 -27.545000076293945,-99.88800048828125 C-27.545000076293945,-99.9020004272461 -27.538000106811523,-99.9229965209961 -27.538000106811523,-99.93699645996094 C-27.538000106811523,-99.95099639892578 -27.538000106811523,-99.96600341796875 -27.5310001373291,-99.9729995727539 C-27.503000259399414,-100.12899780273438 -27.466999053955078,-100.2770004272461 -27.424999237060547,-100.41799926757812 C-27.389999389648438,-100.56700134277344 -27.34000015258789,-100.7020034790039 -27.297000885009766,-100.84300231933594 C-27.290000915527344,-100.86399841308594 -27.290000915527344,-100.87799835205078 -27.275999069213867,-100.89199829101562 C-27.226999282836914,-101.0260009765625 -27.170000076293945,-101.15399932861328 -27.106000900268555,-101.27400207519531 C-27.297000885009766,-100.87100219726562 -27.445999145507812,-100.42500305175781 -27.5310001373291,-99.93000030517578 C-27.58799934387207,-99.6050033569336 -27.6299991607666,-99.25199890136719 -27.643999099731445,-98.88400268554688 C-27.643999099731445,-98.88400268554688 -27.658000946044922,-98.84100341796875 -27.658000946044922,-98.84100341796875 C-27.834999084472656,-93.95500183105469 -24.086999893188477,-85.65399932861328 -17.31999969482422,-75.30899810791016 C-7.9720001220703125,-61.01100158691406 7.131999969482422,-42.82400131225586 25.579999923706055,-24.375999450683594z"/></g><g opacity="0.5" transform="matrix(1,0,0,1,133.7209930419922,307.2130126953125)" style="mix-blend-mode: multiply;"><path class="secondary" fill="rgb(255,199,56)" fill-opacity="1" d=" M-21.892000198364258,95.81800079345703 C-21.892000198364258,95.81800079345703 -31.882999420166016,99.58699798583984 -31.882999420166016,99.58699798583984 C-36.641998291015625,101.38999938964844 -41.316001892089844,97.7490005493164 -41.37300109863281,93.18099975585938 C-41.380001068115234,92.32499694824219 -41.23099899291992,91.45500183105469 -40.89899826049805,90.57099914550781 C-40.89899826049805,90.57099914550781 -31.698999404907227,66.18299865722656 -31.698999404907227,66.18299865722656 C-31.698999404907227,66.18299865722656 -24.656999588012695,47.500999450683594 -24.656999588012695,47.500999450683594 C-24.656999588012695,47.500999450683594 -23.985000610351562,45.72600173950195 -23.985000610351562,45.72600173950195 C-23.985000610351562,45.72600173950195 -17.23200035095215,27.82900047302246 -17.23200035095215,27.82900047302246 C-17.23200035095215,27.82900047302246 -17.04800033569336,27.363000869750977 -17.04800033569336,27.363000869750977 C-17.04800033569336,27.363000869750977 -17.05500030517578,27.356000900268555 -17.05500030517578,27.356000900268555 C-17.05500030517578,27.356000900268555 -14.814000129699707,21.437000274658203 -14.814000129699707,21.437000274658203 C-14.814000129699707,21.437000274658203 -14.821000099182129,21.43000030517578 -14.821000099182129,21.43000030517578 C-14.821000099182129,21.43000030517578 -14.814000129699707,21.42300033569336 -14.814000129699707,21.42300033569336 C-14.814000129699707,21.42300033569336 -2.072000026702881,-12.347999572753906 -2.072000026702881,-12.347999572753906 C-2.072000026702881,-12.347999572753906 13.456000328063965,-53.4739990234375 13.456000328063965,-53.4739990234375 C13.456000328063965,-53.4739990234375 13.449999809265137,-53.48099899291992 13.449999809265137,-53.48099899291992 C13.449999809265137,-53.48099899291992 31.03499984741211,-100.05799865722656 31.03499984741211,-100.05799865722656 C30.857999801635742,-95.1719970703125 34.60599899291992,-86.87000274658203 41.37300109863281,-76.5250015258789 C41.37300109863281,-76.5250015258789 25.979000091552734,-35.74599838256836 25.979000091552734,-35.74599838256836 C25.979000091552734,-35.74599838256836 11.065999984741211,3.7739999294281006 11.065999984741211,3.7739999294281006 C11.065999984741211,3.7739999294281006 2.997999906539917,25.149999618530273 2.997999906539917,25.149999618530273 C2.997999906539917,25.149999618530273 2.990999937057495,25.156999588012695 2.990999937057495,25.156999588012695 C2.990999937057495,25.156999588012695 -3.5350000858306885,42.44499969482422 -3.5350000858306885,42.44499969482422 C-3.5350000858306885,42.44499969482422 -5.749000072479248,48.32099914550781 -5.749000072479248,48.32099914550781 C-5.749000072479248,48.32099914550781 -6.392000198364258,50.012001037597656 -6.392000198364258,50.012001037597656 C-6.392000198364258,50.012001037597656 -17.868000030517578,80.4530029296875 -17.868000030517578,80.4530029296875 C-17.868000030517578,80.4530029296875 -21.878000259399414,91.08000183105469 -21.878000259399414,91.08000183105469 C-22.506999969482422,92.74199676513672 -22.44300079345703,94.38999938964844 -21.892000198364258,95.81800079345703z"/></g><g opacity="1" transform="matrix(1,0,0,1,133.52699279785156,366.0790100097656)"><path class="tertiary" fill="rgb(75,179,253)" fill-opacity="1" d=" M6.385000228881836,-6.395999908447266 C-2.1640000343322754,-14.944999694824219 -9.991000175476074,-23.437000274658203 -16.86400032043457,-31.511999130249023 C-16.86400032043457,-31.511999130249023 -17.854000091552734,-28.895999908447266 -17.854000091552734,-28.895999908447266 C-17.854000091552734,-28.895999908447266 -23.801000595092773,-13.14799976348877 -23.801000595092773,-13.14799976348877 C-23.801000595092773,-13.14799976348877 -24.472999572753906,-11.37399959564209 -24.472999572753906,-11.37399959564209 C-24.472999572753906,-11.37399959564209 -31.516000747680664,7.308000087738037 -31.516000747680664,7.308000087738037 C-27.746999740600586,11.37399959564209 -23.780000686645508,15.496000289916992 -19.64299964904785,19.632999420166016 C-15.506999969482422,23.768999099731445 -11.385000228881836,27.736000061035156 -7.311999797821045,31.511999130249023 C-7.311999797821045,31.511999130249023 11.017000198364258,24.597000122070312 11.017000198364258,24.597000122070312 C11.017000198364258,24.597000122070312 13.428000450134277,23.684999465942383 13.428000450134277,23.684999465942383 C13.428000450134277,23.684999465942383 28.892000198364258,17.85099983215332 28.892000198364258,17.85099983215332 C28.892000198364258,17.85099983215332 31.516000747680664,16.868000030517578 31.516000747680664,16.868000030517578 C23.43400001525879,9.98799991607666 14.934000015258789,2.1530001163482666 6.385000228881836,-6.395999908447266z"/></g><g opacity="1" transform="matrix(1,0,0,1,188.76600646972656,310.84698486328125)"><path class="tertiary" fill="rgb(75,179,253)" fill-opacity="1" d=" M3.200000047683716,-3.2100000381469727 C-16.548999786376953,-22.958999633789062 -32.4739990234375,-42.41899871826172 -41.60300064086914,-57.119998931884766 C-41.60300064086914,-57.119998931884766 -46.14899826049805,-45.06399917602539 -46.14899826049805,-45.06399917602539 C-46.14899826049805,-45.06399917602539 -57.124000549316406,-15.98799991607666 -57.124000549316406,-15.98799991607666 C-48.137001037597656,-4.1579999923706055 -36.38399887084961,9.262999534606934 -22.82900047302246,22.81800079345703 C-9.267000198364258,36.380001068115234 4.1539998054504395,48.132999420166016 15.984000205993652,57.119998931884766 C15.984000205993652,57.119998931884766 45.060001373291016,46.145999908447266 45.060001373291016,46.145999908447266 C45.060001373291016,46.145999908447266 57.124000549316406,41.59199905395508 57.124000549316406,41.59199905395508 C42.41600036621094,32.470001220703125 22.957000732421875,16.547000885009766 3.200000047683716,-3.2100000381469727z"/></g><g opacity="0.5" transform="matrix(1,0,0,1,116.0999984741211,361.114990234375)" style="mix-blend-mode: multiply;"><path class="tertiary" fill="rgb(75,179,253)" fill-opacity="1" d=" M-0.2549999952316284,26.545000076293945 C-0.9129999876022339,25.902000427246094 -1.562000036239624,25.250999450683594 -2.2130000591278076,24.600000381469727 C-6.348999977111816,20.464000701904297 -10.317000389099121,16.340999603271484 -14.086000442504883,12.274999618530273 C-14.086000442504883,12.274999618530273 -7.043000221252441,-6.406000137329102 -7.043000221252441,-6.406000137329102 C-7.043000221252441,-6.406000137329102 -6.370999813079834,-8.180999755859375 -6.370999813079834,-8.180999755859375 C-6.370999813079834,-8.180999755859375 -0.42399999499320984,-23.92799949645996 -0.42399999499320984,-23.92799949645996 C-0.42399999499320984,-23.92799949645996 0.5659999847412109,-26.545000076293945 0.5659999847412109,-26.545000076293945 C4.73799991607666,-21.63800048828125 9.263999938964844,-16.58799934387207 14.086000442504883,-11.454999923706055 C14.086000442504883,-11.454999923706055 11.871999740600586,-5.578999996185303 11.871999740600586,-5.578999996185303 C11.871999740600586,-5.578999996185303 11.229000091552734,-3.8889999389648438 11.229000091552734,-3.8889999389648438 C11.229000091552734,-3.8889999389648438 -0.2549999952316284,26.545000076293945 -0.2549999952316284,26.545000076293945z"/></g><g opacity="0.5" transform="matrix(1,0,0,1,145.66799926757812,282.35400390625)" style="mix-blend-mode: multiply;"><path class="tertiary" fill="rgb(75,179,253)" fill-opacity="1" d=" M-0.8870000243186951,28.62700080871582 C-5.730999946594238,23.034000396728516 -10.13599967956543,17.610000610351562 -14.024999618530273,12.505000114440918 C-14.024999618530273,12.505000114440918 -3.0510001182556152,-16.570999145507812 -3.0510001182556152,-16.570999145507812 C-3.0510001182556152,-16.570999145507812 1.496000051498413,-28.62700080871582 1.496000051498413,-28.62700080871582 C4.818999767303467,-23.2810001373291 9.039999961853027,-17.29199981689453 14.024999618530273,-10.892999649047852 C14.024999618530273,-10.892999649047852 -0.8870000243186951,28.62700080871582 -0.8870000243186951,28.62700080871582z"/></g></g></g><g style="display: block;" transform="matrix(1,0,0,1,204.6619873046875,235.8050079345703)" opacity="1"><g opacity="1" transform="matrix(1,0,0,1,0,0)"><path stroke-linecap="round" stroke-linejoin="round" fill-opacity="0" class="primary" stroke="rgb(18,19,49)" stroke-opacity="1" stroke-width="7" d=" M-65.5979995727539,-64.29399871826172 C-58.4109992980957,-71.48100280761719 -23.506999969482422,-48.23099899291992 12.362000465393066,-12.362000465393066 C48.23099899291992,23.506999969482422 71.48100280761719,58.4109992980957 64.29399871826172,65.5979995727539"/></g></g><g style="display: block;" transform="matrix(1,0,0,1,94.36499786376953,124.04100036621094)" opacity="1"><g opacity="1" transform="matrix(1,0,0,1,0,0)"><path stroke-linecap="round" stroke-linejoin="round" fill-opacity="0" class="primary" stroke="rgb(18,19,49)" stroke-opacity="1" stroke-width="7" d=" M85.82099914550781,109.15699768066406 C110.58499908447266,59.676998138427734 78.71800231933594,-63.327999114990234 -11.373000144958496,-38.49300003051758 C-11.79699993133545,-38.375999450683594 -12.220000267028809,-38.262001037597656 -12.642000198364258,-38.14899826049805"/></g></g><g style="display: block;" transform="matrix(1,0,0,1,271.5820007324219,320.23699951171875)" opacity="1"><g opacity="1" transform="matrix(1,0,0,1,0,0)"><path stroke-linecap="round" stroke-linejoin="round" fill-opacity="0" class="primary" stroke="rgb(18,19,49)" stroke-opacity="1" stroke-width="7" d=" M-63.72999954223633,-55.86899948120117 C-62.62699890136719,-56.70600128173828 -61.534000396728516,-57.52199935913086 -60.452999114990234,-58.31399917602539 C-29.29199981689453,-81.14700317382812 49.85200119018555,-80.23999786376953 59.220001220703125,-17.28499984741211"/></g></g><g style="display: block;" transform="matrix(1,0,0,1,242.86199951171875,114.02100372314453)" opacity="1"><g opacity="1" transform="matrix(1,0,0,1,0,0)"><path stroke-linecap="round" stroke-linejoin="round" fill-opacity="0" class="primary" stroke="rgb(18,19,49)" stroke-opacity="1" stroke-width="7" d=" M10.545999526977539,-42.88399887084961 C9.946000099182129,-29.229999542236328 -13.520999908447266,-28.038999557495117 -12.99899959564209,-13.77400016784668 C-12.46500015258789,0.8339999914169312 12.149999618530273,-0.06599999964237213 12.684000015258789,14.541999816894531 C13.218000411987305,29.149999618530273 -11.39799976348877,30.048999786376953 -10.86400032043457,44.65700149536133 C-10.86400032043457,44.65700149536133 -10.86400032043457,44.65700149536133 -10.86400032043457,44.65700149536133 C-10.845999717712402,45.14500045776367 -10.800999641418457,45.61399841308594 -10.730999946594238,46.06700134277344"/></g></g><g style="display: block;" transform="matrix(0.7193397879600525,0.6946583986282349,-0.6946583986282349,0.7193397879600525,297.86199951171875,175.02099609375)" opacity="1"><g opacity="1" transform="matrix(1,0,0,1,0,0)"><path stroke-linecap="round" stroke-linejoin="round" fill-opacity="0" class="primary" stroke="rgb(18,19,49)" stroke-opacity="1" stroke-width="7" d=" M10.545999526977539,-42.88399887084961 C9.946000099182129,-29.229999542236328 -13.520999908447266,-28.038999557495117 -12.99899959564209,-13.77400016784668 C-12.46500015258789,0.8339999914169312 12.149999618530273,-0.06599999964237213 12.684000015258789,14.541999816894531 C13.218000411987305,29.149999618530273 -11.39799976348877,30.048999786376953 -10.86400032043457,44.65700149536133 C-10.86400032043457,44.65700149536133 -10.86400032043457,44.65700149536133 -10.86400032043457,44.65700149536133 C-10.845999717712402,45.14500045776367 -10.800999641418457,45.61399841308594 -10.730999946594238,46.06700134277344"/></g></g><g style="display: block;" transform="matrix(1,0,0,1,167.15199279785156,273.31500244140625)" opacity="1"><path stroke-linecap="round" stroke-linejoin="round" fill-opacity="0" class="primary" stroke="rgb(18,19,49)" stroke-opacity="1" stroke-width="7" d=" M101.80400085449219,28.08799934387207 C94.61699676513672,35.275001525878906 59.7140007019043,12.02400016784668 23.844999313354492,-23.844999313354492 C-12.02400016784668,-59.7140007019043 -35.275001525878906,-94.61699676513672 -28.08799934387207,-101.80400085449219 C-28.08799934387207,-101.80400085449219 -29.37700080871582,-98.3740005493164 -29.37700080871582,-98.3740005493164 C-29.37700080871582,-98.3740005493164 -101.33699798583984,92.31099700927734 -101.33699798583984,92.31099700927734 C-103.46499633789062,97.94999694824219 -97.94999694824219,103.46499633789062 -92.31099700927734,101.33699798583984 C-92.31099700927734,101.33699798583984 98.3740005493164,29.37700080871582 98.3740005493164,29.37700080871582 C98.3740005493164,29.37700080871582 101.80400085449219,28.08799934387207 101.80400085449219,28.08799934387207z"/><g opacity="1" transform="matrix(1,0,0,1,0,0)"/></g><g style="display: none;" transform="matrix(0.9605208039283752,0.2782081365585327,-0.2782081365585327,0.9605208039283752,186.8251495361328,-15.296880722045898)" opacity="0.044588235294114896"><g opacity="1" transform="matrix(1,0,0,1,0,0)"><path stroke-linecap="round" stroke-linejoin="round" fill-opacity="0" class="primary" stroke="rgb(18,19,49)" stroke-opacity="1" stroke-width="7" d=" M-3.6389999389648438,6.11899995803833 C-3.6389999389648438,6.11899995803833 3.6389999389648438,-6.11899995803833 3.6389999389648438,-6.11899995803833"/></g></g><g style="display: none;" transform="matrix(-0.8290376663208008,0.5591927766799927,-0.5591927766799927,-0.8290376663208008,461.3389892578125,440.9360046386719)" opacity="0.0004117647058843943"><g opacity="1" transform="matrix(1,0,0,1,0,0)"><path stroke-linecap="round" stroke-linejoin="round" fill-opacity="0" class="primary" stroke="rgb(18,19,49)" stroke-opacity="1" stroke-width="7" d=" M7.6479997634887695,-4.640999794006348 C7.6479997634887695,-4.640999794006348 -7.6479997634887695,4.640999794006348 -7.6479997634887695,4.640999794006348"/></g></g><g style="display: none;" transform="matrix(-0.28534257411956787,0.9584255814552307,-0.9584255814552307,-0.28534257411956787,456.4447937011719,281.4766540527344)" opacity="0.10339411764706555"><g opacity="1" transform="matrix(1,0,0,1,0,0)"><path stroke-linecap="round" stroke-linejoin="round" fill-opacity="0" class="primary" stroke="rgb(18,19,49)" stroke-opacity="1" stroke-width="7" d=" M-3.6389999389648438,6.11899995803833 C-3.6389999389648438,6.11899995803833 3.6389999389648438,-6.11899995803833 3.6389999389648438,-6.11899995803833"/></g></g><g style="display: none;" transform="matrix(-0.999038577079773,0.04383938014507294,-0.04383938014507294,-0.999038577079773,-22.990161895751953,321.82916259765625)" opacity="0.11755294117646742"><g opacity="1" transform="matrix(1,0,0,1,0,0)"><path stroke-linecap="round" stroke-linejoin="round" fill-opacity="0" class="primary" stroke="rgb(18,19,49)" stroke-opacity="1" stroke-width="7" d=" M-5.033999919891357,5.033999919891357 C-5.033999919891357,5.033999919891357 5.033999919891357,-5.033999919891357 5.033999919891357,-5.033999919891357"/></g></g><g style="display: none;" transform="matrix(0,1,-1,0,424.0799865722656,-27.69999885559082)" opacity="0.0005529411764754855"><g opacity="1" transform="matrix(1,0,0,1,0,0)"><path stroke-linecap="round" stroke-linejoin="round" fill-opacity="0" class="primary" stroke="rgb(18,19,49)" stroke-opacity="1" stroke-width="7" d=" M5.033999919891357,5.033999919891357 C5.033999919891357,5.033999919891357 -5.033999919891357,-5.033999919891357 -5.033999919891357,-5.033999919891357"/></g></g><g style="display: none;" transform="matrix(-0.2249506711959839,0.9743701815605164,-0.9743701815605164,-0.2249506711959839,260.3559875488281,446.97100830078125)" opacity="0.0004117647058843943"><g opacity="1" transform="matrix(1,0,0,1,0,0)"><path stroke-linecap="round" stroke-linejoin="round" fill-opacity="0" class="primary" stroke="rgb(18,19,49)" stroke-opacity="1" stroke-width="7" d=" M2.569000005722046,6.638999938964844 C2.569000005722046,6.638999938964844 -2.569000005722046,-6.638999938964844 -2.569000005722046,-6.638999938964844"/></g></g><g style="display: none;" transform="matrix(-0.754618227481842,0.6561641097068787,-0.6561641097068787,-0.754618227481842,-21.910232543945312,12.670832633972168)" opacity="0.015188235294121881"><g opacity="1" transform="matrix(1,0,0,1,0,0)"><path stroke-linecap="round" stroke-linejoin="round" fill-opacity="0" class="primary" stroke="rgb(18,19,49)" stroke-opacity="1" stroke-width="7" d=" M-5.395999908447266,-4.64300012588501 C-5.395999908447266,-4.64300012588501 5.395999908447266,4.64300012588501 5.395999908447266,4.64300012588501"/></g></g><g style="display: none;" transform="matrix(-0.9975640177726746,0.0697566419839859,-0.0697566419839859,-0.9975640177726746,442.8169860839844,144.18600463867188)" opacity="0.0003999999999948045"><g opacity="1" transform="matrix(1,0,0,1,0,0)"><path stroke-linecap="round" stroke-linejoin="round" fill-opacity="0" class="primary" stroke="rgb(18,19,49)" stroke-opacity="1" stroke-width="7" d=" M1.9290000200271606,6.8520002365112305 C1.9290000200271606,6.8520002365112305 -1.9290000200271606,-6.8520002365112305 -1.9290000200271606,-6.8520002365112305"/></g></g><g style="display: block;" transform="matrix(1,0,0,1,189.8249969482422,66.69900512695312)" opacity="1"><g opacity="1" transform="matrix(1,0,0,1,0,0)"><path stroke-linecap="round" stroke-linejoin="round" fill-opacity="0" class="primary" stroke="rgb(18,19,49)" stroke-opacity="1" stroke-width="7" d=" M-3.6389999389648438,6.11899995803833 C-3.6389999389648438,6.11899995803833 3.6389999389648438,-6.11899995803833 3.6389999389648438,-6.11899995803833"/></g></g><g style="display: block;" transform="matrix(1,0,0,1,321.3389892578125,360.9360046386719)" opacity="1"><g opacity="1" transform="matrix(1,0,0,1,0,0)"><path stroke-linecap="round" stroke-linejoin="round" fill-opacity="0" class="primary" stroke="rgb(18,19,49)" stroke-opacity="1" stroke-width="7" d=" M7.6479997634887695,-4.640999794006348 C7.6479997634887695,-4.640999794006348 -7.6479997634887695,4.640999794006348 -7.6479997634887695,4.640999794006348"/></g></g><g style="display: block;" transform="matrix(1,0,0,1,377.4809875488281,289.4729919433594)" opacity="1"><g opacity="1" transform="matrix(1,0,0,1,0,0)"><path stroke-linecap="round" stroke-linejoin="round" fill-opacity="0" class="primary" stroke="rgb(18,19,49)" stroke-opacity="1" stroke-width="7" d=" M-3.6389999389648438,6.11899995803833 C-3.6389999389648438,6.11899995803833 3.6389999389648438,-6.11899995803833 3.6389999389648438,-6.11899995803833"/></g></g><g style="display: block;" transform="matrix(1,0,0,1,69.91600036621094,228.92300415039062)" opacity="1"><g opacity="1" transform="matrix(1,0,0,1,0,0)"><path stroke-linecap="round" stroke-linejoin="round" fill-opacity="0" class="primary" stroke="rgb(18,19,49)" stroke-opacity="1" stroke-width="7" d=" M-5.033999919891357,5.033999919891357 C-5.033999919891357,5.033999919891357 5.033999919891357,-5.033999919891357 5.033999919891357,-5.033999919891357"/></g></g><g style="display: block;" transform="matrix(1,0,0,1,341.0799865722656,81.30000305175781)" opacity="1"><g opacity="1" transform="matrix(1,0,0,1,0,0)"><path stroke-linecap="round" stroke-linejoin="round" fill-opacity="0" class="primary" stroke="rgb(18,19,49)" stroke-opacity="1" stroke-width="7" d=" M5.033999919891357,5.033999919891357 C5.033999919891357,5.033999919891357 -5.033999919891357,-5.033999919891357 -5.033999919891357,-5.033999919891357"/></g></g><g style="display: block;" transform="matrix(1,0,0,1,219.3560028076172,358.97100830078125)" opacity="1"><g opacity="1" transform="matrix(1,0,0,1,0,0)"><path stroke-linecap="round" stroke-linejoin="round" fill-opacity="0" class="primary" stroke="rgb(18,19,49)" stroke-opacity="1" stroke-width="7" d=" M2.569000005722046,6.638999938964844 C2.569000005722046,6.638999938964844 -2.569000005722046,-6.638999938964844 -2.569000005722046,-6.638999938964844"/></g></g><g style="display: block;" transform="matrix(1,0,0,1,98.08900451660156,142.6699981689453)" opacity="1"><g opacity="1" transform="matrix(1,0,0,1,0,0)"><path stroke-linecap="round" stroke-linejoin="round" fill-opacity="0" class="primary" stroke="rgb(18,19,49)" stroke-opacity="1" stroke-width="7" d=" M-5.395999908447266,-4.64300012588501 C-5.395999908447266,-4.64300012588501 5.395999908447266,4.64300012588501 5.395999908447266,4.64300012588501"/></g></g><g style="display: block;" transform="matrix(1,0,0,1,355.8169860839844,208.18600463867188)" opacity="1"><g opacity="1" transform="matrix(1,0,0,1,0,0)"><path stroke-linecap="round" stroke-linejoin="round" fill-opacity="0" class="primary" stroke="rgb(18,19,49)" stroke-opacity="1" stroke-width="7" d=" M1.9290000200271606,6.8520002365112305 C1.9290000200271606,6.8520002365112305 -1.9290000200271606,-6.8520002365112305 -1.9290000200271606,-6.8520002365112305"/></g></g></g></g></svg>